<?xml version="1.0" encoding="utf-8"?>
<!-- Generator: Adobe Illustrator 18.1.1, SVG Export Plug-In . SVG Version: 6.00 Build 0)  -->
<svg version="1.1" id="Layer_1" xmlns="http://www.w3.org/2000/svg" xmlns:xlink="http://www.w3.org/1999/xlink" x="0px" y="0px"
	 width="137.98px" height="138.444px" viewBox="0 0 137.98 138.444" enable-background="new 0 0 137.98 138.444"
	 xml:space="preserve">
<path fill-rule="evenodd" clip-rule="evenodd" fill="#161616" d="M63.04,0.059c20.695-0.234,40.4,6.637,55.305,21.249
	c6.829,6.695,11.689,17.056,15.108,25.872c0.616,1.588,2.403,6.49,3.588,11.531c1.582,6.73,1.384,11.167-2.278,11.015
	s-4.009-2.818-4.632-6.06c-1.029-5.361-2.46-10.895-4.426-15.991c-3.217-8.341-8.282-17.556-15.381-23.185
	c-8.173-6.48-16.53-11.644-26.613-14.518c-4.765-1.358-10.099-1.569-15.038-1.958c-5.384-0.424-11.61,0.619-16.841,1.899
	c-4.315,1.511-8.174,4.41-12.304,6.372c-4.673,2.22-9.371,5.467-12.954,9.196c-1.607,1.673-3.417,3.298-4.88,5.093
	c-1.364,1.673-2.154,3.744-3.364,5.525c-1.99,2.929-4.313,5.78-5.698,9.083c-1.407,3.356,5.139,1.258,6.757,1.31
	c5.77,0.185,11.361,0.559,17.158,0.391c4.772-0.139,9.465-0.478,14.225-0.009c1.576,0.155,3.406,0.323,4.869-0.427
	c1.859-0.954,2.37-3.919,3.234-5.656c3.865-7.775,10.319-14.331,18.969-16.362c8.233-1.933,16.275,0.652,18.509,9.464
	c2.438,9.614-3.077,15.891-11.532,19.461c-4.118,1.739-8.9,0.943-13.255,1.126c-1.592,0.067-3.797,0.932-5.141-0.354
	c-1.266-1.212-1.332-3.369-0.761-4.919c1.43-3.882,8.256-2.723,11.491-2.953c4.268-0.304,10.069-1.51,11.995-5.84
	c1.527-3.434,0.764-7.427-2.883-9.002c-4.436-1.915-8.93-0.302-12.52,2.47c-3.911,3.019-6.509,6.035-8.238,10.79
	c-1.657,4.558-2.64,9.743,1.023,13.563c3.441,3.588,7.446,3.868,11.819,2.005c3.262-1.39,8.393-2.978,10.007,1.57
	c1.293,3.644-2.285,6.941-2.337,10.508c-0.011,0.725,0.466,1.181,1.217,1.459c2.253,0.837,6.971,0.082,8.387,0.223
	c5.539,0.551,11.268-0.044,16.808-0.406c5.823-0.381,11.904,0.014,17.718-0.53c2.832-0.265,7.064-0.115,7.344,3.474
	c0.384,4.914-1.927,10.895-3.547,15.452c-1.704,4.792-3.281,9.129-6.291,13.284c-2.911,4.02-5.847,8.011-9.275,11.611
	c-6.486,6.812-14.295,12.462-22.983,16.115c-9.623,4.047-19.716,4.55-29.984,5.26c-5.389,0.373-9.989,0.262-15.258-1.1
	c-5.717-1.478-10.816-4.224-15.802-7.329c-9.108-5.673-17.079-12.439-22.984-21.489c-2.837-4.349-6.166-8.603-7.628-13.651
	c-1.547-5.343-2.404-11.064-3.147-16.569c-0.471-3.493-2.681-22.968,6.02-18.956c2.524,1.164,1.521,2.821,1.423,4.887
	c-0.283,6.001,0.289,12.013,1.234,17.935c0.8,5.018,1.578,10.151,3.748,14.79c2.143,4.581,5.239,8.633,8.436,12.52
	c6.727,8.181,14.599,14.183,24.453,18.232c4.706,1.934,9.424,2.965,14.501,3.115c5.51,0.163,10.523,1.199,16.09,0.571
	c10.528-1.186,20.549-5.142,28.568-12.159c7.61-6.659,14.787-13.37,18.716-22.944c1.412-3.44,4.865-9.227,4.16-13.058
	c-0.911-1.301-3.148-0.642-4.418-0.503c-2.576,0.282-5.443,0.133-8.035,0.052c-5.383-0.168-10.787-0.793-16.175-0.7
	c-4.198,0.072-9.022-0.132-13.381,0.472c-1.056,0.146-2.084,0.34-3.069,0.597c-3.246,0.845-3.589,7.045-4.405,9.645
	c-1.535,4.894-3.611,9.457-6.852,13.464c-5.909,7.307-14.259,11.723-23.613,8.383c-9.601-3.428-13.501-13.775-10.778-23.213
	c2.797-9.694,9.383-14.973,19.109-16.881c4.46-0.875,9.534-1.686,14.078-1.454c4.249,0.217,3.578,4.778,1.753,7.321
	c-1.053,1.469-2.326,1.944-4.12,1.648c-2.387-0.393-4.432-0.028-6.772,0.514c-4.765,1.103-9.665,2.445-12.774,6.503
	c-5.012,6.54-4.876,20.15,6.575,17.764c9.91-2.065,15.4-13.242,17.617-22.328c1.136-4.657,2.831-9.078,4.299-13.635
	c0.892-2.769-1.167-2.246-3.016-1.622c-2.192,0.74-4.915,0.553-7.113-0.056c-3.469-0.961-7.874-4.19-9.702-7.309
	c-2.022-3.449-1.271-6.844-6.192-6.755c-6.153,0.112-12.179-0.633-18.364-0.288c-3.324,0.185-6.647,0.415-9.976,0.48
	c-3.573,0.069-7.18-0.56-10.729-0.371c-3.515,0.187-10.8,1.768-9.606-4.065c0.996-4.868,2.788-9.93,5.161-14.281
	c5.61-10.283,13.518-18.853,23.585-24.823c4.795-2.843,9.87-5.345,14.991-7.551c5.548-2.39,11.661-2.911,17.502-3.982
	C63.336,0.116,62.109,0.172,63.04,0.059C80.458-0.137,61.598,0.233,63.04,0.059z"/>
</svg>
