<?xml version="1.0" encoding="utf-8"?>
<!-- Generator: Adobe Illustrator 18.1.0, SVG Export Plug-In . SVG Version: 6.00 Build 0)  -->
<!DOCTYPE svg PUBLIC "-//W3C//DTD SVG 1.1//EN" "http://www.w3.org/Graphics/SVG/1.1/DTD/svg11.dtd">
<svg version="1.1" id="Layer_1" xmlns="http://www.w3.org/2000/svg" xmlns:xlink="http://www.w3.org/1999/xlink" x="0px" y="0px"
	 width="115px" height="41.462px" viewBox="0 0 115 41.462" enable-background="new 0 0 115 41.462" xml:space="preserve">
<g>
	<path d="M93.029,10.507c-0.94-0.076-1.804-0.232-2.714,0.113c-0.945,0.358-1.697,0.985-2.005,1.958
		c-0.32,1.01-0.695,2.003-1.089,2.987c-0.373,0.93-0.715,1.951-1.235,2.809c-0.937,1.544-3.695,1.288-5.239,1.28
		c-1.087-0.006-2.182-0.032-3.268-0.073c-0.954-0.037-2.213,0.039-2.902-0.747c-0.886,0.351-1.82,0.594-2.774,0.643
		c-1.087,0.056-1.856-0.001-2.852-0.424c-0.893-0.38-1.764,0.472-2.605,0.781c-1.017,0.375-2.108,0.529-3.19,0.491
		c-0.927-0.032-1.827-0.272-2.721-0.503c-0.487-0.126-0.914-0.344-1.43-0.342c-0.532,0.002-1.064,0.003-1.596-0.004
		c-1.029-0.013-2.067-0.2-3.092-0.044c-0.983,0.149-2.01,0.19-3.003,0.081c-0.583-0.064-1.21-0.606-1.024-1.413
		c0.258-1.121,0.946-2.096,1.231-3.218c0.298-1.168,0.839-2.28,1.087-3.456c0.135-0.643-0.359-1.471-1.178-1.492
		c-0.926-0.024-1.874,0.384-2.644,0.873c-0.999,0.635-1.378,1.48-1.816,2.543c-0.715,1.737-1.164,4.125-2.648,5.4
		c-0.744,0.639-1.643,0.709-2.577,0.817c-1.162,0.134-2.297,0.144-3.464,0.144c-1.065,0-2.105-0.043-3.163-0.099
		c-1.2-0.064-2.396,0.039-3.599-0.105c-2.159-0.258-3.355-1.916-3.969-3.879c-0.669-2.139,0.088-4.269,1.297-6.074
		c1.132-1.69,2.762-2.901,4.797-3.242c1.866-0.313,4.303-0.532,5.921,0.641c0.409,0.297,0.769,0.656,1.095,1.041
		c1.352,1.597,0.644,4.954-1.223,5.808c-1.261,0.577-2.376,0.574-3.742,0.604c-0.632,0.014-1.26-0.063-1.892-0.049
		c-0.626,0.014-1.322-0.001-1.843-0.402c-0.499-0.385-0.186-1.104-0.024-1.591c0.141-0.424,0.519-0.871,1.184-0.842
		c0.688,0.03,1.395,0.112,2.083,0.061c0.63-0.047,1.461,0.014,2.026-0.302c0.305-0.171,0.446-0.495,0.332-0.825
		c-0.487-1.401-2.438-1.196-3.489-0.783c-1.168,0.458-2.307,1.17-2.95,2.28c-0.596,1.028-0.756,2.677,0.133,3.617
		c0.898,0.949,2.584,0.94,3.759,0.967c1.494,0.034,3.012,0.213,4.516-0.054c0.63-0.112,1.396-0.243,1.939-0.6
		c0.598-0.392,0.789-1.202,1.022-1.834c0.529-1.433,1.121-2.832,1.725-4.235c0.3-0.697,0.561-1.41,0.829-2.119
		c0.227-0.601,0.373-1.403,0.94-1.782c0.437-0.292,0.919-0.417,1.446-0.33c0.919,0.15,1.28,1.288,1.5,2.061
		c1.17-0.758,2.417-1.614,3.86-1.721c1.356-0.1,3.124,0.271,3.785,1.596c0.744,1.493-0.026,2.965-0.532,4.395
		c-0.511,1.442-1.22,2.893-1.461,4.408c1.168,0.439,2.628,0.292,3.863,0.195c0.21-1.092,0.3-2.093,0.701-3.151
		c0.435-1.148,0.88-2.294,1.34-3.431c0.413-1.023,0.785-2.508,1.598-3.285c0.688-0.657,2.153-0.684,2.796,0.046
		c0.453,0.514,0.182,1.552-0.03,2.128c-0.307,0.831-0.607,1.664-0.935,2.487c-0.299,0.749-0.661,1.469-0.966,2.215
		c-0.286,0.7-0.733,1.504-0.147,2.176c0.236,0.27,0.528,0.458,0.876,0.535c1.116,0.247,2.092-0.026,2.919-0.816
		c0.509-0.486,0.706-1.349,0.943-1.988c0.286-0.769,0.549-1.547,0.786-2.333c0.227-0.754,0.502-1.489,0.753-2.235
		c0.234-0.696,0.351-1.676,0.859-2.233c0.527-0.577,1.207-0.622,1.935-0.541c0.612,0.069,0.957,0.523,1.061,1.002
		c0.172,0.793-0.111,1.568-0.318,2.325c-0.215,0.79-0.446,1.576-0.721,2.348c-0.254,0.713-0.47,1.439-0.706,2.158
		c-0.125,0.38-0.776,1.693-0.491,2.043c0.728,0.892,1.795,0.819,2.822,0.62c1.275-0.247,1.375-1.322,1.735-2.403
		c0.799-2.401,1.995-4.669,2.833-7.057c0.299-0.85,1.233-1.33,2.081-1.041c0.646,0.221,1.752,0.625,1.485,1.503
		c-0.305,1.004-0.65,1.989-0.972,2.986c-0.632,1.96-1.781,3.736-2.248,5.736c0.814,0.037,1.539,0.213,2.379,0.13
		c0.595-0.059,1.635,0.14,1.978-0.418c0.938-1.527,1.17-3.471,1.845-5.119c0.347-0.848,0.699-1.68,0.982-2.553
		c0.198-0.611,0.323-1.583,0.862-2.006c1.479-1.16,2.6,0.531,3.146,1.702c1.158-0.875,2.225-1.898,3.736-2.035
		c1.453-0.131,2.948,0.58,3.696,1.862c0.767,1.316,0.264,2.92,0.03,4.307c-0.248,1.467-0.748,2.95-0.748,4.443
		c0.407,0.229,1.231,0.083,1.679,0.063c0.716-0.032,1.407-0.027,2.105-0.194c-0.205-1.962-0.266-3.828,0.518-5.69
		c0.694-1.647,2.086-2.976,3.61-3.861c1.676-0.974,3.879-1.355,5.769-0.845c1.695,0.457,3.221,1.936,3.395,3.719
		c0.189,1.93-0.411,3.736-2.387,3.976c-2.048,0.249-3.963,0.395-5.955,0.32c-0.748-0.028-1.006-0.55-0.895-1.228
		c0.057-0.348,0.282-0.82,0.513-1.084c0.337-0.386,0.641-0.29,1.114-0.318c0.993-0.058,2.037-0.027,3.056,0.038
		c0.48,0.031,0.817-0.059,1.189-0.426c0.286-0.281,0.482-0.717,0.252-1.094c-0.448-0.736-1.324-0.774-2.085-0.76
		c-0.859,0.016-1.741,0.107-2.491,0.563c-1.617,0.984-2.326,2.94-2.202,4.771c0.137,2.028,2.762,1.931,4.273,2.044
		c2.047,0.153,4.112-0.15,6.156,0.137c0.565,0.079,0.954,0.509,1.029,1.103c0.05,0.391-0.053,0.729-0.325,1.018
		c-0.64,0.679-1.505,0.712-2.38,0.712c-0.982,0-1.964,0.002-2.946-0.006c-2.017-0.015-4.043-0.054-6.059,0.013
		c-1.967,0.065-3.931,0.064-5.898,0.135c-1.021,0.037-2.032,0-3.051-0.026c-0.948-0.025-1.801,0.037-2.431-0.791
		c-0.419-0.551-0.12-1.393,0.033-1.989c0.206-0.806,0.411-1.612,0.66-2.406C93.017,13.158,93.327,11.927,93.029,10.507
		C92.759,10.485,93.055,10.631,93.029,10.507z M98.587,17.477c0.062,0.111,0.109,0.059,0.172,0.01
		C98.698,17.483,98.653,17.48,98.587,17.477z"/>
	<path d="M22.137,22.128c0.97,0.36,2.2,0.303,3.224,0.389c1.206,0.101,2.413,0.003,3.621,0.081c2.111,0.137,4.303,0.27,6.415,0.108
		c2.321-0.179,4.606,0.087,6.927,0.135c2.315,0.048,4.638-0.056,6.954-0.047c4.65,0.019,9.312,0.052,13.953,0.203
		c2.255,0.073,4.511-0.002,6.765,0.031c2.25,0.033,4.506-0.285,6.758-0.328c3.174-0.061,6.326,0.421,9.501,0.231
		c3.214-0.192,6.438,0.248,9.659,0.151c0.768-0.023,1.526-0.188,2.294-0.228c0.783-0.041,1.567-0.066,2.35-0.101
		c1.646-0.076,3.261,0.096,4.901,0.106c1.531,0.009,3.062-0.011,4.593,0.02c1.292,0.026,3.235-0.106,4.35,0.652
		c0.347,0.236,0.514,0.579,0.505,1.002c-0.059,2.569-3.403,1.739-5.059,1.785c-2.16,0.06-4.323-0.043-6.482-0.147
		c-1.024-0.05-1.979-0.068-2.983,0.127c-1.128,0.219-2.378,0.075-3.514-0.024c-2.181-0.189-4.34-0.061-6.516,0.019
		c-2.286,0.084-4.549-0.208-6.834-0.264c-1.107-0.027-2.215-0.081-3.322-0.051c-1.114,0.03-2.227,0.194-3.341,0.182
		c-1.039-0.011-2.077-0.087-3.117-0.082c-1.188,0.006-2.381,0.091-3.569,0.048c-2.306-0.084-4.601,0.122-6.906,0.037
		c-1.731-0.064-3.44-0.374-5.176-0.326c-1.736,0.049-3.48,0.142-5.216,0.139c-1.82-0.003-3.639-0.024-5.459,0.039
		c-0.896,0.031-1.787-0.091-2.679-0.06c-0.931,0.033-1.85,0.095-2.782,0.016c-1.683-0.143-3.445,0.135-5.138,0.126
		c-1.811-0.01-3.61-0.163-5.421-0.144c-3.522,0.037-7.038,0.031-10.56-0.067c-0.479,0.848-0.749,1.795-1.103,2.698
		c-0.407,1.038-0.953,2.036-1.386,3.069c-0.4,0.954-0.871,1.875-1.271,2.829c-0.41,0.978-0.76,1.937-1.417,2.785
		c-1.16,1.499-3.149,2.882-4.929,3.526c-0.849,0.307-1.993,0.767-2.91,0.653c-1.031-0.128-2.276-0.437-3.165-0.981
		c-0.851-0.521-1.874-0.994-2.595-1.691c-0.708-0.684-1.236-1.582-1.572-2.502c-0.678-1.855-0.597-4.104-0.07-5.994
		c0.534-1.913,1.305-3.647,2.967-4.833c1.785-1.273,3.724-2.163,5.87-2.578c1.214-0.234,2.414-0.257,3.647-0.311
		c0.989-0.044,2.234-0.066,3.263,0.206c0.35,0.093,0.612,0.431,0.546,0.788c-0.126,0.683-0.41,1.602-0.848,2.144
		c-0.547,0.678-1.98,0.192-2.716,0.12C11.069,25.61,9,26.033,7.188,27.078c-1.617,0.932-2.859,2.345-3.494,4.108
		c-0.329,0.915-0.64,2.009-0.308,2.967c0.276,0.794,0.826,2.044,1.509,2.565c0.623,0.476,1.707,0.548,2.464,0.581
		c1.094,0.047,2.097-0.227,3.136-0.532c2.072-0.608,2.873-2.567,3.809-4.345c0.963-1.829,1.417-3.899,2.15-5.825
		c0.76-1.997,1.371-4.024,1.902-6.088c-1.193-0.22-2.436,0.114-3.651-0.082c-1.159-0.187-2.166-0.814-3.159-1.404
		c-0.941-0.56-1.737-1.127-2.215-2.148c-0.223-0.477-0.449-0.936-0.564-1.454c-0.056-0.254-0.353-1.275-0.139-1.447
		c-0.696-0.067-1.399-0.21-2.096-0.299c-0.785-0.1-1.676-0.095-2.437-0.304c-1.438-0.396-0.923-2.839,0.311-3.17
		c1.009-0.271,2.241,0.005,3.271,0.069c0.496,0.031,0.989,0.046,1.482-0.035c0.446-0.073,0.608-0.506,0.696-0.92
		c0.19-0.896,0.79-1.917,1.223-2.721c0.499-0.926,1.17-1.717,1.845-2.516c0.673-0.797,1.406-1.295,2.298-1.822
		c0.844-0.499,1.675-1.119,2.642-1.354c1.926-0.468,4.375-1.072,6.281-0.179c0.932,0.436,1.542,1.274,2.12,2.085
		c0.575,0.806,1.114,1.633,1.227,2.641c0.209,1.878-0.293,4.188-1.638,5.578c-1.495,1.545-3.166,1.987-5.2,2.449
		c-1.014,0.231-2.014,0.306-3.047,0.4c-1.09,0.098-2.146-0.076-3.237,0.003c-0.43,0.031-0.787-0.344-0.834-0.68
		c-0.082-0.588-0.07-1.591,0.264-2.111c0.373-0.58,1.267-0.375,1.848-0.444c0.755-0.089,1.514,0.007,2.276-0.056
		c0.864-0.071,1.732-0.099,2.576-0.319c0.715-0.186,1.546-0.414,2.191-0.777c0.613-0.345,0.995-0.992,1.283-1.613
		c0.635-1.369-0.062-3.236-1.216-4.139c-1.089-0.851-2.823-0.648-3.965-0.042c-0.663,0.352-1.252,0.922-1.82,1.407
		c-0.652,0.556-1.337,1.12-1.877,1.789c-0.964,1.194-1.813,2.565-2.157,4.068c-0.187,0.817-0.385,1.611-0.3,2.456
		c0.081,0.809-0.013,1.674,0.519,2.349c0.927,1.176,2.329,1.492,3.764,1.406c1.645-0.098,3.028-0.853,4.601-1.245
		c1.367-0.341,2.05,1.231,1.813,2.361c-0.135,0.643-0.514,1.213-0.718,1.837C22.405,20.786,22.21,21.44,22.137,22.128
		C22.649,22.318,22.158,21.933,22.137,22.128z"/>
	<path d="M80.851,0.015c0.662-0.012,1.255,0.208,1.695,0.756c0.305,0.379,0.481,0.828,0.577,1.297
		c0.319,1.565-2.128,2.581-3.228,1.704c-0.66-0.527-0.94-1.447-0.689-2.294c0.135-0.455,0.38-0.842,0.742-1.152
		C80.199,0.11,80.485-0.011,80.851,0.015C81.512,0.003,80.485-0.011,80.851,0.015z"/>
</g>
</svg>
